<svg xmlns="http://www.w3.org/2000/svg" viewBox="0 0 100 100" width="100" height="100">
  <rect width="100" height="100" fill="#0b1f33"/>
  <g transform="translate(50 50) scale(0.8) translate(-50 -50)">
    <path d="M43.9 77.4L43.9 95.9L46.7 100.0L56.4 88.4L69.3 79.1L78.9 69.0L93.1 44.2L93.7 39.6L95.9 39.3L94.2 39.0L95.3 32.0L93.0 31.2L89.6 33.5L76.0 35.3L71.8 37.5L68.1 37.0L63.7 39.1L60.4 38.9L55.3 33.6L52.3 38.2L56.4 44.4L59.1 46.4L73.9 51.4L78.9 51.4L63.7 66.9L56.9 67.2L53.0 70.0L49.1 70.8L43.9 77.4ZM4.0 51.9L8.5 53.9L12.6 58.2L15.4 64.4L18.0 65.1L19.1 69.2L23.6 69.4L29.5 73.3L36.5 74.2L42.9 70.1L44.7 71.7L48.4 71.6L56.9 67.2L63.7 66.9L78.9 51.4L73.9 51.4L58.9 46.3L53.2 40.2L52.3 38.2L53.6 36.2L48.0 36.3L48.0 32.7L50.9 28.7L43.1 20.3L34.4 17.6L31.2 18.6L28.5 16.4L26.9 20.1L25.3 18.5L21.7 19.5L19.6 27.4L17.4 27.9L14.6 32.0L13.7 36.9L11.9 36.8L10.4 38.6L9.5 48.5L5.4 49.2L4.0 51.9ZM47.9 34.1L48.0 36.3L53.6 36.2L55.3 33.6L51.6 33.3L55.9 30.6L54.6 27.5L52.5 29.1L50.9 28.7L47.9 34.1ZM21.2 15.0L21.7 19.5L25.3 18.5L26.9 20.1L28.5 16.4L31.2 18.6L34.1 17.6L39.7 18.5L43.1 20.3L50.9 28.7L52.5 29.1L54.6 27.5L44.9 17.6L40.0 15.6L38.3 13.2L38.0 15.0L32.1 0.0L26.1 4.9L24.1 5.0L21.2 15.0Z" fill="#c9182b"/>
  </g>
</svg>
